<mxfile host="app.diagrams.net" modified="2023-02-28T08:43:27.296Z" agent="5.0 (Windows NT 10.0; Win64; x64) AppleWebKit/537.36 (KHTML, like Gecko) Chrome/110.0.0.0 Safari/537.36" etag="YCzVTnxmgtfGfwfmI_pF" version="20.8.23" type="github">
  <diagram name="Page-1" id="13e1069c-82ec-6db2-03f1-153e76fe0fe0">
    <mxGraphModel dx="1674" dy="788" grid="1" gridSize="10" guides="1" tooltips="1" connect="1" arrows="1" fold="1" page="1" pageScale="1" pageWidth="1100" pageHeight="850" background="none" math="0" shadow="0">
      <root>
        <mxCell id="0" />
        <mxCell id="1" parent="0" />
        <mxCell id="kNRqlW5JKP3w2LnrG_5e-8" value="UI" style="shape=umlLifeline;perimeter=lifelinePerimeter;whiteSpace=wrap;html=1;container=1;dropTarget=0;collapsible=0;recursiveResize=0;outlineConnect=0;portConstraint=eastwest;newEdgeStyle={&quot;edgeStyle&quot;:&quot;elbowEdgeStyle&quot;,&quot;elbow&quot;:&quot;vertical&quot;,&quot;curved&quot;:0,&quot;rounded&quot;:0};" vertex="1" parent="1">
          <mxGeometry x="280" y="110" width="100" height="480" as="geometry" />
        </mxCell>
        <mxCell id="kNRqlW5JKP3w2LnrG_5e-13" value="" style="html=1;points=[];perimeter=orthogonalPerimeter;outlineConnect=0;targetShapes=umlLifeline;portConstraint=eastwest;newEdgeStyle={&quot;edgeStyle&quot;:&quot;elbowEdgeStyle&quot;,&quot;elbow&quot;:&quot;vertical&quot;,&quot;curved&quot;:0,&quot;rounded&quot;:0};" vertex="1" parent="kNRqlW5JKP3w2LnrG_5e-8">
          <mxGeometry x="45" y="90" width="10" height="330" as="geometry" />
        </mxCell>
        <mxCell id="kNRqlW5JKP3w2LnrG_5e-9" value="UserRoute" style="shape=umlLifeline;perimeter=lifelinePerimeter;whiteSpace=wrap;html=1;container=1;dropTarget=0;collapsible=0;recursiveResize=0;outlineConnect=0;portConstraint=eastwest;newEdgeStyle={&quot;edgeStyle&quot;:&quot;elbowEdgeStyle&quot;,&quot;elbow&quot;:&quot;vertical&quot;,&quot;curved&quot;:0,&quot;rounded&quot;:0};" vertex="1" parent="1">
          <mxGeometry x="470" y="109" width="100" height="480" as="geometry" />
        </mxCell>
        <mxCell id="kNRqlW5JKP3w2LnrG_5e-29" value="IsExists" style="html=1;verticalAlign=bottom;startArrow=oval;startFill=1;endArrow=block;startSize=8;edgeStyle=elbowEdgeStyle;elbow=vertical;curved=0;rounded=0;" edge="1" parent="kNRqlW5JKP3w2LnrG_5e-9">
          <mxGeometry width="60" relative="1" as="geometry">
            <mxPoint x="49.5" y="241" as="sourcePoint" />
            <mxPoint x="259.5" y="241" as="targetPoint" />
            <Array as="points">
              <mxPoint x="120" y="241" />
              <mxPoint x="180" y="251" />
              <mxPoint x="50" y="243" />
            </Array>
          </mxGeometry>
        </mxCell>
        <mxCell id="kNRqlW5JKP3w2LnrG_5e-30" value="" style="html=1;points=[];perimeter=orthogonalPerimeter;outlineConnect=0;targetShapes=umlLifeline;portConstraint=eastwest;newEdgeStyle={&quot;edgeStyle&quot;:&quot;elbowEdgeStyle&quot;,&quot;elbow&quot;:&quot;vertical&quot;,&quot;curved&quot;:0,&quot;rounded&quot;:0};" vertex="1" parent="kNRqlW5JKP3w2LnrG_5e-9">
          <mxGeometry x="45" y="241" width="10" height="29" as="geometry" />
        </mxCell>
        <mxCell id="kNRqlW5JKP3w2LnrG_5e-38" value="" style="html=1;points=[];perimeter=orthogonalPerimeter;outlineConnect=0;targetShapes=umlLifeline;portConstraint=eastwest;newEdgeStyle={&quot;edgeStyle&quot;:&quot;elbowEdgeStyle&quot;,&quot;elbow&quot;:&quot;vertical&quot;,&quot;curved&quot;:0,&quot;rounded&quot;:0};" vertex="1" parent="kNRqlW5JKP3w2LnrG_5e-9">
          <mxGeometry x="45" y="311" width="10" height="9" as="geometry" />
        </mxCell>
        <mxCell id="kNRqlW5JKP3w2LnrG_5e-45" value="" style="html=1;points=[];perimeter=orthogonalPerimeter;outlineConnect=0;targetShapes=umlLifeline;portConstraint=eastwest;newEdgeStyle={&quot;edgeStyle&quot;:&quot;elbowEdgeStyle&quot;,&quot;elbow&quot;:&quot;vertical&quot;,&quot;curved&quot;:0,&quot;rounded&quot;:0};" vertex="1" parent="kNRqlW5JKP3w2LnrG_5e-9">
          <mxGeometry x="45" y="371" width="10" height="49" as="geometry" />
        </mxCell>
        <mxCell id="kNRqlW5JKP3w2LnrG_5e-10" value="UserService" style="shape=umlLifeline;perimeter=lifelinePerimeter;whiteSpace=wrap;html=1;container=1;dropTarget=0;collapsible=0;recursiveResize=0;outlineConnect=0;portConstraint=eastwest;newEdgeStyle={&quot;edgeStyle&quot;:&quot;elbowEdgeStyle&quot;,&quot;elbow&quot;:&quot;vertical&quot;,&quot;curved&quot;:0,&quot;rounded&quot;:0};" vertex="1" parent="1">
          <mxGeometry x="680" y="110" width="100" height="480" as="geometry" />
        </mxCell>
        <mxCell id="kNRqlW5JKP3w2LnrG_5e-35" value="" style="html=1;points=[];perimeter=orthogonalPerimeter;outlineConnect=0;targetShapes=umlLifeline;portConstraint=eastwest;newEdgeStyle={&quot;edgeStyle&quot;:&quot;elbowEdgeStyle&quot;,&quot;elbow&quot;:&quot;vertical&quot;,&quot;curved&quot;:0,&quot;rounded&quot;:0};" vertex="1" parent="kNRqlW5JKP3w2LnrG_5e-10">
          <mxGeometry x="45" y="240" width="10" height="30" as="geometry" />
        </mxCell>
        <mxCell id="kNRqlW5JKP3w2LnrG_5e-41" value="" style="html=1;points=[];perimeter=orthogonalPerimeter;outlineConnect=0;targetShapes=umlLifeline;portConstraint=eastwest;newEdgeStyle={&quot;edgeStyle&quot;:&quot;elbowEdgeStyle&quot;,&quot;elbow&quot;:&quot;vertical&quot;,&quot;curved&quot;:0,&quot;rounded&quot;:0};" vertex="1" parent="kNRqlW5JKP3w2LnrG_5e-10">
          <mxGeometry x="45" y="310" width="10" height="10" as="geometry" />
        </mxCell>
        <mxCell id="kNRqlW5JKP3w2LnrG_5e-48" value="" style="html=1;points=[];perimeter=orthogonalPerimeter;outlineConnect=0;targetShapes=umlLifeline;portConstraint=eastwest;newEdgeStyle={&quot;edgeStyle&quot;:&quot;elbowEdgeStyle&quot;,&quot;elbow&quot;:&quot;vertical&quot;,&quot;curved&quot;:0,&quot;rounded&quot;:0};" vertex="1" parent="kNRqlW5JKP3w2LnrG_5e-10">
          <mxGeometry x="45" y="370" width="10" height="100" as="geometry" />
        </mxCell>
        <mxCell id="kNRqlW5JKP3w2LnrG_5e-11" value="" style="shape=umlLifeline;perimeter=lifelinePerimeter;whiteSpace=wrap;html=1;container=1;dropTarget=0;collapsible=0;recursiveResize=0;outlineConnect=0;portConstraint=eastwest;newEdgeStyle={&quot;edgeStyle&quot;:&quot;elbowEdgeStyle&quot;,&quot;elbow&quot;:&quot;vertical&quot;,&quot;curved&quot;:0,&quot;rounded&quot;:0};participant=umlActor;" vertex="1" parent="1">
          <mxGeometry x="110" y="110" width="20" height="470" as="geometry" />
        </mxCell>
        <mxCell id="kNRqlW5JKP3w2LnrG_5e-12" value="Open" style="html=1;verticalAlign=bottom;endArrow=block;edgeStyle=elbowEdgeStyle;elbow=vertical;curved=0;rounded=0;" edge="1" parent="1" source="kNRqlW5JKP3w2LnrG_5e-11" target="kNRqlW5JKP3w2LnrG_5e-8">
          <mxGeometry width="80" relative="1" as="geometry">
            <mxPoint x="140" y="200" as="sourcePoint" />
            <mxPoint x="200" y="200" as="targetPoint" />
            <Array as="points">
              <mxPoint x="260" y="200" />
            </Array>
          </mxGeometry>
        </mxCell>
        <mxCell id="kNRqlW5JKP3w2LnrG_5e-14" value="User Register" style="html=1;verticalAlign=bottom;startArrow=oval;startFill=1;endArrow=block;startSize=8;edgeStyle=elbowEdgeStyle;elbow=vertical;curved=0;rounded=0;" edge="1" parent="1" source="kNRqlW5JKP3w2LnrG_5e-11">
          <mxGeometry width="60" relative="1" as="geometry">
            <mxPoint x="130" y="240" as="sourcePoint" />
            <mxPoint x="330" y="240" as="targetPoint" />
            <Array as="points">
              <mxPoint x="260" y="240" />
            </Array>
          </mxGeometry>
        </mxCell>
        <mxCell id="kNRqlW5JKP3w2LnrG_5e-21" value="" style="html=1;points=[];perimeter=orthogonalPerimeter;outlineConnect=0;targetShapes=umlLifeline;portConstraint=eastwest;newEdgeStyle={&quot;edgeStyle&quot;:&quot;elbowEdgeStyle&quot;,&quot;elbow&quot;:&quot;vertical&quot;,&quot;curved&quot;:0,&quot;rounded&quot;:0};" vertex="1" parent="1">
          <mxGeometry x="725" y="241" width="10" height="59" as="geometry" />
        </mxCell>
        <mxCell id="kNRqlW5JKP3w2LnrG_5e-23" value="IsExists" style="html=1;verticalAlign=bottom;startArrow=oval;startFill=1;endArrow=block;startSize=8;edgeStyle=elbowEdgeStyle;elbow=vertical;curved=0;rounded=0;" edge="1" parent="1" source="kNRqlW5JKP3w2LnrG_5e-9">
          <mxGeometry width="60" relative="1" as="geometry">
            <mxPoint x="540" y="240" as="sourcePoint" />
            <mxPoint x="729.5" y="241" as="targetPoint" />
            <Array as="points">
              <mxPoint x="590" y="241" />
              <mxPoint x="650" y="251" />
              <mxPoint x="520" y="243" />
            </Array>
          </mxGeometry>
        </mxCell>
        <mxCell id="kNRqlW5JKP3w2LnrG_5e-24" value="HashPassword" style="html=1;verticalAlign=bottom;startArrow=oval;startFill=1;endArrow=block;startSize=8;edgeStyle=elbowEdgeStyle;elbow=vertical;curved=0;rounded=0;" edge="1" parent="1">
          <mxGeometry width="60" relative="1" as="geometry">
            <mxPoint x="519.5" y="271" as="sourcePoint" />
            <mxPoint x="729.5" y="271" as="targetPoint" />
            <Array as="points">
              <mxPoint x="670" y="271" />
            </Array>
          </mxGeometry>
        </mxCell>
        <mxCell id="kNRqlW5JKP3w2LnrG_5e-25" value="Create" style="html=1;verticalAlign=bottom;startArrow=none;startFill=1;endArrow=block;startSize=8;edgeStyle=elbowEdgeStyle;elbow=vertical;curved=0;rounded=0;" edge="1" parent="1" source="kNRqlW5JKP3w2LnrG_5e-17">
          <mxGeometry width="60" relative="1" as="geometry">
            <mxPoint x="519.5" y="301" as="sourcePoint" />
            <mxPoint x="729.5" y="301" as="targetPoint" />
            <Array as="points">
              <mxPoint x="675" y="301" />
            </Array>
          </mxGeometry>
        </mxCell>
        <mxCell id="kNRqlW5JKP3w2LnrG_5e-26" value="User Login" style="html=1;verticalAlign=bottom;startArrow=oval;startFill=1;endArrow=block;startSize=8;edgeStyle=elbowEdgeStyle;elbow=vertical;curved=0;rounded=0;" edge="1" parent="1">
          <mxGeometry width="60" relative="1" as="geometry">
            <mxPoint x="120" y="340" as="sourcePoint" />
            <mxPoint x="330" y="340" as="targetPoint" />
            <Array as="points">
              <mxPoint x="260" y="340" />
            </Array>
          </mxGeometry>
        </mxCell>
        <mxCell id="kNRqlW5JKP3w2LnrG_5e-27" value="Register" style="html=1;verticalAlign=bottom;startArrow=oval;startFill=1;endArrow=block;startSize=8;edgeStyle=elbowEdgeStyle;elbow=vertical;curved=0;rounded=0;" edge="1" parent="1" source="kNRqlW5JKP3w2LnrG_5e-13">
          <mxGeometry x="0.0028" y="10" width="60" relative="1" as="geometry">
            <mxPoint x="340" y="241" as="sourcePoint" />
            <mxPoint x="520" y="241" as="targetPoint" />
            <mxPoint as="offset" />
          </mxGeometry>
        </mxCell>
        <mxCell id="kNRqlW5JKP3w2LnrG_5e-28" value="" style="html=1;verticalAlign=bottom;startArrow=oval;startFill=1;endArrow=none;startSize=8;edgeStyle=elbowEdgeStyle;elbow=vertical;curved=0;rounded=0;" edge="1" parent="1" target="kNRqlW5JKP3w2LnrG_5e-17">
          <mxGeometry width="60" relative="1" as="geometry">
            <mxPoint x="519.5" y="301" as="sourcePoint" />
            <mxPoint x="729.5" y="301" as="targetPoint" />
            <Array as="points" />
          </mxGeometry>
        </mxCell>
        <mxCell id="kNRqlW5JKP3w2LnrG_5e-17" value="" style="html=1;points=[];perimeter=orthogonalPerimeter;outlineConnect=0;targetShapes=umlLifeline;portConstraint=eastwest;newEdgeStyle={&quot;edgeStyle&quot;:&quot;elbowEdgeStyle&quot;,&quot;elbow&quot;:&quot;vertical&quot;,&quot;curved&quot;:0,&quot;rounded&quot;:0};" vertex="1" parent="1">
          <mxGeometry x="515" y="241" width="10" height="59" as="geometry" />
        </mxCell>
        <mxCell id="kNRqlW5JKP3w2LnrG_5e-31" value="CheckPassword" style="html=1;verticalAlign=bottom;startArrow=oval;startFill=1;endArrow=block;startSize=8;edgeStyle=elbowEdgeStyle;elbow=vertical;curved=0;rounded=0;" edge="1" parent="1">
          <mxGeometry width="60" relative="1" as="geometry">
            <mxPoint x="520" y="380" as="sourcePoint" />
            <mxPoint x="730" y="380" as="targetPoint" />
            <Array as="points">
              <mxPoint x="590.5" y="380" />
              <mxPoint x="650.5" y="390" />
              <mxPoint x="520.5" y="382" />
            </Array>
          </mxGeometry>
        </mxCell>
        <mxCell id="kNRqlW5JKP3w2LnrG_5e-34" value="Login" style="html=1;verticalAlign=bottom;startArrow=oval;startFill=1;endArrow=block;startSize=8;edgeStyle=elbowEdgeStyle;elbow=vertical;curved=0;rounded=0;" edge="1" parent="1" source="kNRqlW5JKP3w2LnrG_5e-13">
          <mxGeometry width="60" relative="1" as="geometry">
            <mxPoint x="340" y="349" as="sourcePoint" />
            <mxPoint x="519.5" y="349" as="targetPoint" />
          </mxGeometry>
        </mxCell>
        <mxCell id="kNRqlW5JKP3w2LnrG_5e-36" value="User Reset Password" style="html=1;verticalAlign=bottom;startArrow=oval;startFill=1;endArrow=block;startSize=8;edgeStyle=elbowEdgeStyle;elbow=vertical;curved=0;rounded=0;" edge="1" parent="1">
          <mxGeometry width="60" relative="1" as="geometry">
            <mxPoint x="120" y="414" as="sourcePoint" />
            <mxPoint x="330" y="414" as="targetPoint" />
            <Array as="points">
              <mxPoint x="260" y="414" />
            </Array>
          </mxGeometry>
        </mxCell>
        <mxCell id="kNRqlW5JKP3w2LnrG_5e-37" value="ResetPassword" style="html=1;verticalAlign=bottom;startArrow=oval;startFill=1;endArrow=block;startSize=8;edgeStyle=elbowEdgeStyle;elbow=vertical;curved=0;rounded=0;" edge="1" parent="1">
          <mxGeometry width="60" relative="1" as="geometry">
            <mxPoint x="335.5" y="420" as="sourcePoint" />
            <mxPoint x="520" y="420" as="targetPoint" />
          </mxGeometry>
        </mxCell>
        <mxCell id="kNRqlW5JKP3w2LnrG_5e-42" value="UpdatePassword" style="html=1;verticalAlign=bottom;startArrow=oval;startFill=1;endArrow=block;startSize=8;edgeStyle=elbowEdgeStyle;elbow=vertical;curved=0;rounded=0;" edge="1" parent="1" source="kNRqlW5JKP3w2LnrG_5e-9">
          <mxGeometry width="60" relative="1" as="geometry">
            <mxPoint x="540" y="420" as="sourcePoint" />
            <mxPoint x="735" y="420" as="targetPoint" />
            <Array as="points">
              <mxPoint x="595.5" y="420" />
              <mxPoint x="655.5" y="430" />
              <mxPoint x="525.5" y="422" />
            </Array>
          </mxGeometry>
        </mxCell>
        <mxCell id="kNRqlW5JKP3w2LnrG_5e-44" value="User Forget Password" style="html=1;verticalAlign=bottom;startArrow=oval;startFill=1;endArrow=block;startSize=8;edgeStyle=elbowEdgeStyle;elbow=vertical;curved=0;rounded=0;" edge="1" parent="1">
          <mxGeometry width="60" relative="1" as="geometry">
            <mxPoint x="120" y="480" as="sourcePoint" />
            <mxPoint x="330" y="480" as="targetPoint" />
            <Array as="points">
              <mxPoint x="260" y="480" />
            </Array>
          </mxGeometry>
        </mxCell>
        <mxCell id="kNRqlW5JKP3w2LnrG_5e-46" value="GetEmail" style="html=1;verticalAlign=bottom;startArrow=oval;startFill=1;endArrow=block;startSize=8;edgeStyle=elbowEdgeStyle;elbow=vertical;curved=0;rounded=0;" edge="1" parent="1">
          <mxGeometry width="60" relative="1" as="geometry">
            <mxPoint x="525" y="480" as="sourcePoint" />
            <mxPoint x="735" y="480" as="targetPoint" />
            <Array as="points">
              <mxPoint x="595.5" y="480" />
              <mxPoint x="655.5" y="490" />
              <mxPoint x="525.5" y="482" />
            </Array>
          </mxGeometry>
        </mxCell>
        <mxCell id="kNRqlW5JKP3w2LnrG_5e-47" value="ForgetPassword" style="html=1;verticalAlign=bottom;startArrow=oval;startFill=1;endArrow=block;startSize=8;edgeStyle=elbowEdgeStyle;elbow=vertical;curved=0;rounded=0;" edge="1" parent="1" source="kNRqlW5JKP3w2LnrG_5e-13">
          <mxGeometry width="60" relative="1" as="geometry">
            <mxPoint x="341" y="480" as="sourcePoint" />
            <mxPoint x="520" y="480" as="targetPoint" />
          </mxGeometry>
        </mxCell>
        <mxCell id="kNRqlW5JKP3w2LnrG_5e-50" value="GenPassword" style="html=1;align=left;spacingLeft=2;endArrow=block;rounded=0;edgeStyle=orthogonalEdgeStyle;curved=0;rounded=0;" edge="1" parent="1">
          <mxGeometry relative="1" as="geometry">
            <mxPoint x="735" y="490" as="sourcePoint" />
            <Array as="points">
              <mxPoint x="765" y="520" />
            </Array>
            <mxPoint x="740" y="520" as="targetPoint" />
          </mxGeometry>
        </mxCell>
        <mxCell id="kNRqlW5JKP3w2LnrG_5e-54" value="User" style="shape=umlLifeline;perimeter=lifelinePerimeter;whiteSpace=wrap;html=1;container=1;dropTarget=0;collapsible=0;recursiveResize=0;outlineConnect=0;portConstraint=eastwest;newEdgeStyle={&quot;edgeStyle&quot;:&quot;elbowEdgeStyle&quot;,&quot;elbow&quot;:&quot;vertical&quot;,&quot;curved&quot;:0,&quot;rounded&quot;:0};" vertex="1" parent="1">
          <mxGeometry x="870" y="110" width="100" height="470" as="geometry" />
        </mxCell>
        <mxCell id="kNRqlW5JKP3w2LnrG_5e-56" value="" style="html=1;points=[];perimeter=orthogonalPerimeter;outlineConnect=0;targetShapes=umlLifeline;portConstraint=eastwest;newEdgeStyle={&quot;edgeStyle&quot;:&quot;elbowEdgeStyle&quot;,&quot;elbow&quot;:&quot;vertical&quot;,&quot;curved&quot;:0,&quot;rounded&quot;:0};" vertex="1" parent="kNRqlW5JKP3w2LnrG_5e-54">
          <mxGeometry x="45" y="130" width="10" height="70" as="geometry" />
        </mxCell>
        <mxCell id="kNRqlW5JKP3w2LnrG_5e-61" value="" style="html=1;points=[];perimeter=orthogonalPerimeter;outlineConnect=0;targetShapes=umlLifeline;portConstraint=eastwest;newEdgeStyle={&quot;edgeStyle&quot;:&quot;elbowEdgeStyle&quot;,&quot;elbow&quot;:&quot;vertical&quot;,&quot;curved&quot;:0,&quot;rounded&quot;:0};" vertex="1" parent="kNRqlW5JKP3w2LnrG_5e-54">
          <mxGeometry x="45" y="240" width="10" height="40" as="geometry" />
        </mxCell>
        <mxCell id="kNRqlW5JKP3w2LnrG_5e-62" value="" style="html=1;points=[];perimeter=orthogonalPerimeter;outlineConnect=0;targetShapes=umlLifeline;portConstraint=eastwest;newEdgeStyle={&quot;edgeStyle&quot;:&quot;elbowEdgeStyle&quot;,&quot;elbow&quot;:&quot;vertical&quot;,&quot;curved&quot;:0,&quot;rounded&quot;:0};" vertex="1" parent="kNRqlW5JKP3w2LnrG_5e-54">
          <mxGeometry x="45" y="310" width="10" height="10" as="geometry" />
        </mxCell>
        <mxCell id="kNRqlW5JKP3w2LnrG_5e-64" value="" style="html=1;points=[];perimeter=orthogonalPerimeter;outlineConnect=0;targetShapes=umlLifeline;portConstraint=eastwest;newEdgeStyle={&quot;edgeStyle&quot;:&quot;elbowEdgeStyle&quot;,&quot;elbow&quot;:&quot;vertical&quot;,&quot;curved&quot;:0,&quot;rounded&quot;:0};" vertex="1" parent="kNRqlW5JKP3w2LnrG_5e-54">
          <mxGeometry x="45" y="370" width="10" height="60" as="geometry" />
        </mxCell>
        <mxCell id="kNRqlW5JKP3w2LnrG_5e-55" value="Create" style="html=1;verticalAlign=bottom;startArrow=none;startFill=1;endArrow=block;startSize=8;edgeStyle=elbowEdgeStyle;elbow=vertical;curved=0;rounded=0;" edge="1" parent="1">
          <mxGeometry width="60" relative="1" as="geometry">
            <mxPoint x="710" y="299" as="sourcePoint" />
            <mxPoint x="920" y="300" as="targetPoint" />
            <Array as="points">
              <mxPoint x="865" y="300" />
            </Array>
          </mxGeometry>
        </mxCell>
        <mxCell id="kNRqlW5JKP3w2LnrG_5e-57" value="GetPassword" style="html=1;verticalAlign=bottom;startArrow=none;startFill=1;endArrow=block;startSize=8;edgeStyle=elbowEdgeStyle;elbow=vertical;curved=0;rounded=0;" edge="1" parent="1" target="kNRqlW5JKP3w2LnrG_5e-61">
          <mxGeometry width="60" relative="1" as="geometry">
            <mxPoint x="725" y="380" as="sourcePoint" />
            <mxPoint x="910" y="380" as="targetPoint" />
            <Array as="points">
              <mxPoint x="880" y="381" />
            </Array>
          </mxGeometry>
        </mxCell>
        <mxCell id="kNRqlW5JKP3w2LnrG_5e-59" value="GetByEmail" style="html=1;verticalAlign=bottom;startArrow=oval;startFill=1;endArrow=block;startSize=8;edgeStyle=elbowEdgeStyle;elbow=vertical;curved=0;rounded=0;" edge="1" parent="1" target="kNRqlW5JKP3w2LnrG_5e-56">
          <mxGeometry width="60" relative="1" as="geometry">
            <mxPoint x="735" y="241" as="sourcePoint" />
            <mxPoint x="900" y="242" as="targetPoint" />
            <Array as="points">
              <mxPoint x="920" y="242" />
              <mxPoint x="865.5" y="251" />
              <mxPoint x="735.5" y="243" />
            </Array>
          </mxGeometry>
        </mxCell>
        <mxCell id="kNRqlW5JKP3w2LnrG_5e-60" value="GetByEmail" style="html=1;verticalAlign=bottom;startArrow=none;startFill=1;endArrow=block;startSize=8;edgeStyle=elbowEdgeStyle;elbow=vertical;curved=0;rounded=0;" edge="1" parent="1" target="kNRqlW5JKP3w2LnrG_5e-54">
          <mxGeometry width="60" relative="1" as="geometry">
            <mxPoint x="740" y="351" as="sourcePoint" />
            <mxPoint x="910" y="350" as="targetPoint" />
            <Array as="points" />
          </mxGeometry>
        </mxCell>
        <mxCell id="kNRqlW5JKP3w2LnrG_5e-63" value="UpdatePassword" style="html=1;verticalAlign=bottom;startArrow=none;startFill=1;endArrow=block;startSize=8;edgeStyle=elbowEdgeStyle;elbow=vertical;curved=0;rounded=0;" edge="1" parent="1">
          <mxGeometry width="60" relative="1" as="geometry">
            <mxPoint x="735" y="420" as="sourcePoint" />
            <mxPoint x="925" y="421" as="targetPoint" />
            <Array as="points">
              <mxPoint x="890" y="421" />
            </Array>
          </mxGeometry>
        </mxCell>
        <mxCell id="kNRqlW5JKP3w2LnrG_5e-65" value="GetEmail" style="html=1;verticalAlign=bottom;startArrow=oval;startFill=1;endArrow=block;startSize=8;edgeStyle=elbowEdgeStyle;elbow=vertical;curved=0;rounded=0;entryX=0.5;entryY=0;entryDx=0;entryDy=0;entryPerimeter=0;" edge="1" parent="1" target="kNRqlW5JKP3w2LnrG_5e-64">
          <mxGeometry width="60" relative="1" as="geometry">
            <mxPoint x="735" y="480" as="sourcePoint" />
            <mxPoint x="910" y="480" as="targetPoint" />
            <Array as="points">
              <mxPoint x="805.5" y="480" />
              <mxPoint x="865.5" y="490" />
              <mxPoint x="735.5" y="482" />
            </Array>
          </mxGeometry>
        </mxCell>
        <mxCell id="kNRqlW5JKP3w2LnrG_5e-66" value="SendMail" style="html=1;align=left;spacingLeft=2;endArrow=block;rounded=0;edgeStyle=orthogonalEdgeStyle;curved=0;rounded=0;" edge="1" parent="1">
          <mxGeometry relative="1" as="geometry">
            <mxPoint x="735" y="540" as="sourcePoint" />
            <Array as="points">
              <mxPoint x="765" y="570" />
            </Array>
            <mxPoint x="740" y="570" as="targetPoint" />
          </mxGeometry>
        </mxCell>
        <mxCell id="kNRqlW5JKP3w2LnrG_5e-67" value="UpdatePassword" style="html=1;verticalAlign=bottom;startArrow=none;startFill=1;endArrow=block;startSize=8;edgeStyle=elbowEdgeStyle;elbow=vertical;curved=0;rounded=0;" edge="1" parent="1">
          <mxGeometry width="60" relative="1" as="geometry">
            <mxPoint x="735" y="530" as="sourcePoint" />
            <mxPoint x="920" y="531" as="targetPoint" />
            <Array as="points">
              <mxPoint x="890" y="531" />
            </Array>
          </mxGeometry>
        </mxCell>
        <mxCell id="kNRqlW5JKP3w2LnrG_5e-68" value="Login Screen" style="shape=umlFrame;whiteSpace=wrap;html=1;pointerEvents=0;width=110;height=30;fillColor=#FFFF66;" vertex="1" parent="1">
          <mxGeometry x="60" y="50" width="940" height="550" as="geometry" />
        </mxCell>
      </root>
    </mxGraphModel>
  </diagram>
</mxfile>
